<svg xmlns="http://www.w3.org/2000/svg" version="1.1" xmlns:xlink="http://www.w3.org/1999/xlink" xmlns:svgjs="http://svgjs.dev/svgjs" width="128" height="128" viewBox="0 0 128 128"><g transform="matrix(0.8046875,0,0,0.8046875,12.760235126000836,12.760752631578946)"><svg viewBox="0 0 95 95" data-background-color="#ffffff" preserveAspectRatio="xMidYMid meet" height="128" width="128" xmlns="http://www.w3.org/2000/svg" xmlns:xlink="http://www.w3.org/1999/xlink"><g id="tight-bounds" transform="matrix(1,0,0,1,-0.24002268902989954,-0.24049999999999727)"><svg viewBox="0 0 95.48004537805981 95.481" height="95.481" width="95.48004537805981"><g><svg viewBox="0 0 95.48004537805981 95.481" height="95.481" width="95.48004537805981"><g><svg viewBox="0 0 95.48004537805981 95.481" height="95.481" width="95.48004537805981"><g id="textblocktransform"><svg viewBox="0 0 95.48004537805981 95.481" height="95.481" width="95.48004537805981" id="textblock"><g><svg viewBox="0 0 95.48004537805981 95.481" height="95.481" width="95.48004537805981"><g><svg viewBox="0 0 95.48004537805981 95.481" height="95.481" width="95.48004537805981"><g><svg xmlns="http://www.w3.org/2000/svg" xmlns:xlink="http://www.w3.org/1999/xlink" version="1.1" x="0" y="0" viewBox="10 10 99.99900019696045 99.99999999999999" enable-background="new 0 0 120 120" xml:space="preserve" height="95.481" width="95.48004537805981" class="icon-icon-0" data-fill-palette-color="accent" id="icon-0"><g fill="#636365" data-fill-palette-color="accent"><path d="M101.515 10h-83.03C13.806 10 10 13.806 10 18.484v83.032c0 4.678 3.806 8.484 8.484 8.484h83.03c4.679 0 8.485-3.807 8.485-8.484V18.484C110 13.806 106.193 10 101.515 10zM102.566 18.484v14.827h-20.34L68.135 46.808h-4.44V17.433h37.82C102.095 17.433 102.566 17.905 102.566 18.484zM73.191 63.891h29.375v15.33H85.211l-12.02-11.514V63.891zM73.191 56.458v-4.199l12.02-11.514h17.355v15.713H73.191zM54.241 65.76V54.242h11.518V65.76H54.241zM18.484 17.433h37.777v29.375h-4.244L37.926 33.311H17.433V18.484C17.433 17.905 17.904 17.433 18.484 17.433zM17.433 63.891h29.375v3.963L34.94 79.221H17.433V63.891zM17.433 56.458V40.745H34.94l11.867 11.367v4.346H17.433zM17.433 101.516V86.654h20.493L51.98 73.193h4.281v29.373H18.484C17.904 102.566 17.433 102.094 17.433 101.516zM101.515 102.566h-37.82V73.193h4.478l14.055 13.461h20.34v14.861C102.566 102.094 102.095 102.566 101.515 102.566z" fill="#636365" data-fill-palette-color="accent"></path></g></svg></g></svg></g></svg></g></svg></g></svg></g></svg></g><defs></defs></svg><rect width="95.48004537805981" height="95.481" fill="none" stroke="none" visibility="hidden"></rect></g></svg></g></svg>