<svg xmlns="http://www.w3.org/2000/svg" version="1.1" xmlns:xlink="http://www.w3.org/1999/xlink" xmlns:svgjs="http://svgjs.dev/svgjs" width="1500" height="170" viewBox="0 0 1500 170"><g transform="matrix(1,0,0,1,-0.9090909090909918,0.8843578626118074)"><svg viewBox="0 0 396 45" data-background-color="#ffffff" preserveAspectRatio="xMidYMid meet" height="170" width="1500" xmlns="http://www.w3.org/2000/svg" xmlns:xlink="http://www.w3.org/1999/xlink"><g id="tight-bounds" transform="matrix(1,0,0,1,0.2400000000000091,-0.2340947283384196)"><svg viewBox="0 0 395.52 45.46818945667685" height="45.46818945667685" width="395.52"><g><svg viewBox="0 0 481.5826749854677 55.36178272980501" height="45.46818945667685" width="395.52"><g><rect width="4.967743980033426" height="55.36178272980501" x="68.0903656126766" y="0" fill="#636365" opacity="1" stroke-width="0" stroke="transparent" fill-opacity="1" class="rect-qz-0" data-fill-palette-color="primary" rx="1%" id="qz-0" data-palette-color="#636365"></rect></g><g transform="matrix(1,0,0,1,86.0626749854677,0.13771587743732283)"><svg viewBox="0 0 395.52 55.08635097493036" height="55.08635097493036" width="395.52"><g id="textblocktransform"><svg viewBox="0 0 395.52 55.08635097493036" height="55.08635097493036" width="395.52" id="textblock"><g><svg viewBox="0 0 395.52 55.08635097493036" height="55.08635097493036" width="395.52"><g transform="matrix(1,0,0,1,0,0)"><svg width="395.52" viewBox="4.7 -37 269.23 37.5" height="55.08635097493036" data-palette-color="#636365"><path d="M6.2-35L18.05-35Q20.85-35 23-33.73 25.15-32.45 26.4-30.2 27.65-27.95 27.65-25.05L27.65-25.05Q27.65-22.15 26.4-19.83 25.15-17.5 23-16.15 20.85-14.8 18.05-14.8L18.05-14.8 7.45-14.8 7.7-15.3 7.7-1.5Q7.7-0.9 7.25-0.45 6.8 0 6.2 0L6.2 0Q5.5 0 5.1-0.45 4.7-0.9 4.7-1.5L4.7-1.5 4.7-33.5Q4.7-34.1 5.15-34.55 5.6-35 6.2-35L6.2-35ZM7.4-17.7L18.05-17.7Q20-17.7 21.45-18.68 22.9-19.65 23.73-21.33 24.55-23 24.55-25.05L24.55-25.05Q24.55-27.1 23.73-28.68 22.9-30.25 21.45-31.15 20-32.05 18.05-32.05L18.05-32.05 7.45-32.05 7.7-32.5 7.7-17.4 7.4-17.7ZM35.25 0L35.25 0Q34.55 0 34.15-0.45 33.75-0.9 33.75-1.5L33.75-1.5 33.75-23.9Q33.75-24.5 34.17-24.95 34.6-25.4 35.25-25.4L35.25-25.4Q35.9-25.4 36.32-24.95 36.75-24.5 36.75-23.9L36.75-23.9 36.75-16.4 36-16.25Q36.15-18 36.87-19.73 37.6-21.45 38.85-22.9 40.1-24.35 41.82-25.25 43.55-26.15 45.7-26.15L45.7-26.15Q46.6-26.15 47.45-25.78 48.3-25.4 48.3-24.55L48.3-24.55Q48.3-23.8 47.9-23.4 47.5-23 46.95-23L46.95-23Q46.5-23 45.97-23.25 45.45-23.5 44.6-23.5L44.6-23.5Q43.2-23.5 41.8-22.68 40.4-21.85 39.25-20.45 38.1-19.05 37.42-17.32 36.75-15.6 36.75-13.85L36.75-13.85 36.75-1.5Q36.75-0.9 36.3-0.45 35.85 0 35.25 0ZM75.5-12.8L75.5-12.8Q75.5-9 73.82-5.98 72.15-2.95 69.3-1.23 66.44 0.5 62.84 0.5L62.84 0.5Q59.3 0.5 56.42-1.23 53.55-2.95 51.87-5.98 50.2-9 50.2-12.8L50.2-12.8Q50.2-16.65 51.87-19.65 53.55-22.65 56.42-24.4 59.3-26.15 62.84-26.15L62.84-26.15Q66.44-26.15 69.3-24.4 72.15-22.65 73.82-19.65 75.5-16.65 75.5-12.8ZM72.5-12.8L72.5-12.8Q72.5-15.85 71.25-18.23 70-20.6 67.82-21.98 65.64-23.35 62.84-23.35L62.84-23.35Q60.09-23.35 57.92-21.98 55.75-20.6 54.47-18.23 53.2-15.85 53.2-12.8L53.2-12.8Q53.2-9.75 54.47-7.4 55.75-5.05 57.92-3.68 60.09-2.3 62.84-2.3L62.84-2.3Q65.64-2.3 67.82-3.68 70-5.05 71.25-7.4 72.5-9.75 72.5-12.8ZM93.14-25.75L93.14-25.75Q96.24-25.75 98.44-24.13 100.64-22.5 101.44-19.3L101.44-19.3 100.74-19.1 101.04-20Q101.69-21.5 103.22-22.83 104.74-24.15 106.69-24.95 108.64-25.75 110.64-25.75L110.64-25.75Q113.79-25.75 115.72-24.4 117.64-23.05 118.52-20.78 119.39-18.5 119.39-15.65L119.39-15.65 119.39-1.5Q119.39-0.9 118.97-0.45 118.54 0 117.89 0L117.89 0Q117.24 0 116.82-0.45 116.39-0.9 116.39-1.5L116.39-1.5 116.39-15.5Q116.39-17.55 115.74-19.25 115.09-20.95 113.69-21.95 112.29-22.95 109.94-22.95L109.94-22.95Q107.89-22.95 106.02-21.95 104.14-20.95 102.97-19.25 101.79-17.55 101.79-15.5L101.79-15.5 101.79-1.5Q101.79-0.9 101.37-0.45 100.94 0 100.29 0L100.29 0Q99.64 0 99.22-0.45 98.79-0.9 98.79-1.5L98.79-1.5 98.79-15.65Q98.79-17.7 98.19-19.35 97.59-21 96.24-21.98 94.89-22.95 92.59-22.95L92.59-22.95Q90.54-22.95 88.72-21.98 86.89-21 85.77-19.35 84.64-17.7 84.64-15.65L84.64-15.65 84.64-1.5Q84.64-0.9 84.19-0.45 83.74 0 83.14 0L83.14 0Q82.44 0 82.04-0.45 81.64-0.9 81.64-1.5L81.64-1.5 81.64-23.9Q81.64-24.5 82.07-24.95 82.49-25.4 83.14-25.4L83.14-25.4Q83.79-25.4 84.22-24.95 84.64-24.5 84.64-23.9L84.64-23.9 84.64-19.25 83.29-17.4Q83.44-18.9 84.27-20.4 85.09-21.9 86.44-23.1 87.79-24.3 89.52-25.03 91.24-25.75 93.14-25.75ZM138.59 0.5L138.59 0.5Q134.74 0.5 131.79-1.15 128.84-2.8 127.19-5.75 125.54-8.7 125.54-12.65L125.54-12.65Q125.54-16.9 127.21-19.9 128.89-22.9 131.56-24.53 134.24-26.15 137.24-26.15L137.24-26.15Q139.44-26.15 141.51-25.38 143.59-24.6 145.19-23.08 146.79-21.55 147.79-19.35 148.79-17.15 148.84-14.25L148.84-14.25Q148.84-13.65 148.39-13.23 147.94-12.8 147.34-12.8L147.34-12.8 127.29-12.8 126.69-15.5 146.39-15.5 145.74-14.9 145.74-15.9Q145.49-18.25 144.19-19.9 142.89-21.55 141.06-22.4 139.24-23.25 137.24-23.25L137.24-23.25Q135.74-23.25 134.16-22.65 132.59-22.05 131.31-20.78 130.04-19.5 129.24-17.53 128.44-15.55 128.44-12.85L128.44-12.85Q128.44-9.9 129.64-7.5 130.84-5.1 133.09-3.7 135.34-2.3 138.54-2.3L138.54-2.3Q140.24-2.3 141.64-2.8 143.04-3.3 144.12-4.13 145.19-4.95 145.89-5.85L145.89-5.85Q146.44-6.3 146.94-6.3L146.94-6.3Q147.49-6.3 147.87-5.9 148.24-5.5 148.24-5L148.24-5Q148.24-4.4 147.74-3.95L147.74-3.95Q146.24-2.15 143.84-0.83 141.44 0.5 138.59 0.5ZM153.39-25.45L153.39-25.45 165.04-25.45Q165.64-25.45 166.04-25.03 166.44-24.6 166.44-24L166.44-24Q166.44-23.45 166.04-23.05 165.64-22.65 165.04-22.65L165.04-22.65 153.39-22.65Q152.79-22.65 152.36-23.08 151.94-23.5 151.94-24.05L151.94-24.05Q151.94-24.65 152.36-25.05 152.79-25.45 153.39-25.45ZM158.54-32.5L158.54-32.5Q159.19-32.5 159.61-32.05 160.04-31.6 160.04-31L160.04-31 160.04-5.9Q160.04-4.5 160.41-3.8 160.79-3.1 161.39-2.88 161.99-2.65 162.59-2.65L162.59-2.65Q162.99-2.65 163.31-2.78 163.64-2.9 164.04-2.9L164.04-2.9Q164.49-2.9 164.81-2.55 165.14-2.2 165.14-1.65L165.14-1.65Q165.14-0.95 164.34-0.48 163.54 0 162.44 0L162.44 0Q161.99 0 161.09-0.08 160.19-0.15 159.24-0.63 158.29-1.1 157.66-2.3 157.04-3.5 157.04-5.75L157.04-5.75 157.04-31Q157.04-31.6 157.46-32.05 157.89-32.5 158.54-32.5ZM183.63-25.75L183.63-25.75Q186.78-25.75 188.74-24.4 190.69-23.05 191.61-20.75 192.53-18.45 192.53-15.65L192.53-15.65 192.53-1.5Q192.53-0.9 192.09-0.45 191.63 0 191.03 0L191.03 0Q190.34 0 189.94-0.45 189.53-0.9 189.53-1.5L189.53-1.5 189.53-15.65Q189.53-17.7 188.91-19.35 188.28-21 186.88-21.98 185.48-22.95 183.13-22.95L183.13-22.95Q181.03-22.95 179.16-21.98 177.28-21 176.13-19.35 174.98-17.7 174.98-15.65L174.98-15.65 174.98-1.5Q174.98-0.9 174.53-0.45 174.09 0 173.48 0L173.48 0Q172.78 0 172.38-0.45 171.98-0.9 171.98-1.5L171.98-1.5 171.98-35.5Q171.98-36.1 172.41-36.55 172.84-37 173.48-37L173.48-37Q174.13-37 174.56-36.55 174.98-36.1 174.98-35.5L174.98-35.5 174.98-19.3 173.84-17.55Q173.94-19.1 174.81-20.58 175.69-22.05 177.09-23.23 178.48-24.4 180.19-25.08 181.88-25.75 183.63-25.75ZM211.73 0.5L211.73 0.5Q207.88 0.5 204.93-1.15 201.98-2.8 200.33-5.75 198.68-8.7 198.68-12.65L198.68-12.65Q198.68-16.9 200.36-19.9 202.03-22.9 204.71-24.53 207.38-26.15 210.38-26.15L210.38-26.15Q212.58-26.15 214.66-25.38 216.73-24.6 218.33-23.08 219.93-21.55 220.93-19.35 221.93-17.15 221.98-14.25L221.98-14.25Q221.98-13.65 221.53-13.23 221.08-12.8 220.48-12.8L220.48-12.8 200.43-12.8 199.83-15.5 219.53-15.5 218.88-14.9 218.88-15.9Q218.63-18.25 217.33-19.9 216.03-21.55 214.21-22.4 212.38-23.25 210.38-23.25L210.38-23.25Q208.88-23.25 207.31-22.65 205.73-22.05 204.46-20.78 203.18-19.5 202.38-17.53 201.58-15.55 201.58-12.85L201.58-12.85Q201.58-9.9 202.78-7.5 203.98-5.1 206.23-3.7 208.48-2.3 211.68-2.3L211.68-2.3Q213.38-2.3 214.78-2.8 216.18-3.3 217.26-4.13 218.33-4.95 219.03-5.85L219.03-5.85Q219.58-6.3 220.08-6.3L220.08-6.3Q220.63-6.3 221.01-5.9 221.38-5.5 221.38-5L221.38-5Q221.38-4.4 220.88-3.95L220.88-3.95Q219.38-2.15 216.98-0.83 214.58 0.5 211.73 0.5ZM247.28-25.4L247.28-25.4Q247.93-25.4 248.36-24.95 248.78-24.5 248.78-23.9L248.78-23.9 248.78-9.8Q248.78-4.85 245.98-2.25 243.18 0.35 238.43 0.35L238.43 0.35Q233.73 0.35 230.96-2.25 228.18-4.85 228.18-9.8L228.18-9.8 228.18-23.9Q228.18-24.5 228.61-24.95 229.03-25.4 229.68-25.4L229.68-25.4Q230.33-25.4 230.76-24.95 231.18-24.5 231.18-23.9L231.18-23.9 231.18-9.8Q231.18-6.2 233.11-4.33 235.03-2.45 238.43-2.45L238.43-2.45Q241.88-2.45 243.83-4.33 245.78-6.2 245.78-9.8L245.78-9.8 245.78-23.9Q245.78-24.5 246.18-24.95 246.58-25.4 247.28-25.4ZM255.18-4.05L255.18-4.05Q254.78-4.65 254.8-5.23 254.83-5.8 255.43-6.15L255.43-6.15Q255.83-6.5 256.35-6.45 256.88-6.4 257.33-5.95L257.33-5.95Q258.68-4.2 260.6-3.13 262.53-2.05 265.18-2.05L265.18-2.05Q266.58-2.05 267.95-2.53 269.33-3 270.23-3.98 271.13-4.95 271.13-6.45L271.13-6.45Q271.13-8 270.23-8.95 269.33-9.9 267.9-10.45 266.48-11 264.88-11.4L264.88-11.4Q263.18-11.85 261.58-12.43 259.98-13 258.75-13.88 257.53-14.75 256.78-16 256.03-17.25 256.03-19.05L256.03-19.05Q256.03-21.15 257.18-22.75 258.33-24.35 260.3-25.25 262.28-26.15 264.78-26.15L264.78-26.15Q266.03-26.15 267.48-25.83 268.93-25.5 270.33-24.75 271.73-24 272.83-22.7L272.83-22.7Q273.28-22.25 273.28-21.68 273.28-21.1 272.78-20.65L272.78-20.65Q272.38-20.35 271.85-20.35 271.33-20.35 270.98-20.75L270.98-20.75Q269.78-22.1 268.13-22.8 266.48-23.5 264.58-23.5L264.58-23.5Q263.13-23.5 261.85-23.03 260.58-22.55 259.73-21.6 258.88-20.65 258.88-19.1L258.88-19.1Q258.98-17.65 259.9-16.75 260.83-15.85 262.35-15.25 263.88-14.65 265.78-14.15L265.78-14.15Q267.38-13.75 268.85-13.2 270.33-12.65 271.45-11.83 272.58-11 273.25-9.75 273.93-8.5 273.93-6.6L273.93-6.6Q273.93-4.4 272.7-2.8 271.48-1.2 269.43-0.35 267.38 0.5 264.88 0.5L264.88 0.5Q262.18 0.5 259.65-0.55 257.13-1.6 255.18-4.05Z" opacity="1" transform="matrix(1,0,0,1,0,0)" fill="#636365" class="wordmark-text-0" data-fill-palette-color="primary" id="text-0"></path></svg></g></svg></g></svg></g></svg></g><g transform="matrix(1,0,0,1,0,0.13771587743732638)"><svg viewBox="0 0 55.085800219918944 55.086350974930355" height="55.086350974930355" width="55.085800219918944"><g><svg xmlns="http://www.w3.org/2000/svg" xmlns:xlink="http://www.w3.org/1999/xlink" version="1.1" x="0" y="0" viewBox="10 10 99.99900019696045 99.99999999999999" enable-background="new 0 0 120 120" xml:space="preserve" height="55.086350974930355" width="55.085800219918944" class="icon-icon-0" data-fill-palette-color="accent" id="icon-0"><g fill="#636365" data-fill-palette-color="accent"><path d="M101.515 10h-83.03C13.806 10 10 13.806 10 18.484v83.032c0 4.678 3.806 8.484 8.484 8.484h83.03c4.679 0 8.485-3.807 8.485-8.484V18.484C110 13.806 106.193 10 101.515 10zM102.566 18.484v14.827h-20.34L68.135 46.808h-4.44V17.433h37.82C102.095 17.433 102.566 17.905 102.566 18.484zM73.191 63.891h29.375v15.33H85.211l-12.02-11.514V63.891zM73.191 56.458v-4.199l12.02-11.514h17.355v15.713H73.191zM54.241 65.76V54.242h11.518V65.76H54.241zM18.484 17.433h37.777v29.375h-4.244L37.926 33.311H17.433V18.484C17.433 17.905 17.904 17.433 18.484 17.433zM17.433 63.891h29.375v3.963L34.94 79.221H17.433V63.891zM17.433 56.458V40.745H34.94l11.867 11.367v4.346H17.433zM17.433 101.516V86.654h20.493L51.98 73.193h4.281v29.373H18.484C17.904 102.566 17.433 102.094 17.433 101.516zM101.515 102.566h-37.82V73.193h4.478l14.055 13.461h20.34v14.861C102.566 102.094 102.095 102.566 101.515 102.566z" fill="#636365" data-fill-palette-color="accent"></path></g></svg></g></svg></g></svg></g><defs></defs></svg><rect width="395.52" height="45.46818945667685" fill="none" stroke="none" visibility="hidden"></rect></g></svg></g></svg>